<svg width="209" height="139" viewBox="0 0 209 139" fill="none" xmlns="http://www.w3.org/2000/svg">
<path d="M139.002 69.4959L173.752 104.246L139.002 138.996L104.252 104.246L139.002 69.4959Z" fill="#3998FF"/>
<path d="M69.4688 69.4688L104.203 104.203L69.4687 138.938L34.7341 104.203L69.4688 69.4688Z" fill="#D763FF"/>
<rect x="104.281" y="34.7812" width="49.1879" height="49.1879" transform="rotate(45 104.281 34.7812)" fill="#8A88FF"/>
<rect x="34.7812" y="34.7812" width="49.1879" height="49.1879" transform="rotate(45 34.7812 34.7812)" fill="#FFB800"/>
<path d="M139.031 0L173.812 34.7811L139.031 69.5623L104.25 34.7811L139.031 0Z" fill="#8A88FF"/>
<path d="M69.5291 0L104.31 34.7811L69.529 69.5623L34.7479 34.7811L69.5291 0Z" fill="#FF7979"/>
<rect x="173.779" y="34.75" width="49.1879" height="49.1879" transform="rotate(45 173.779 34.75)" fill="#19E6F3"/>
<path d="M104.281 34.75L139.062 69.5311L104.281 104.312L69.5001 69.5311L104.281 34.75Z" fill="#3A36FF"/>
</svg>
