<svg width="51" height="24" viewBox="0 0 51 24" fill="none" xmlns="http://www.w3.org/2000/svg">
<g clip-path="url(#clip0_276_115)">
<path d="M35.012 22.855L35.269 21.968C35.575 20.912 35.461 19.937 34.948 19.22C34.476 18.56 33.689 18.171 32.734 18.126L14.638 17.897C14.582 17.8959 14.527 17.8816 14.4775 17.8554C14.428 17.8292 14.3854 17.7917 14.353 17.746C14.3215 17.6985 14.3014 17.6443 14.2945 17.5877C14.2876 17.5311 14.2939 17.4737 14.313 17.42C14.344 17.3313 14.4003 17.2537 14.475 17.1966C14.5496 17.1396 14.6393 17.1056 14.733 17.099L32.996 16.867C35.162 16.768 37.508 15.011 38.329 12.869L39.37 10.15C39.4127 10.0349 39.4224 9.91027 39.398 9.79C38.216 4.475 33.468 0.5 27.792 0.5C22.562 0.5 18.122 3.873 16.529 8.561C15.4526 7.75387 14.1112 7.38281 12.773 7.522C12.0085 7.60159 11.2701 7.84479 10.608 8.23507C9.94581 8.62535 9.37541 9.15358 8.93552 9.78387C8.49563 10.4142 8.19654 11.1317 8.05859 11.8879C7.92063 12.644 7.94703 13.421 8.136 14.166C4.037 14.286 0.75 17.641 0.75 21.766C0.75 22.134 0.778001 22.501 0.832001 22.866C0.843758 22.9501 0.88538 23.0272 0.949268 23.0832C1.01316 23.1392 1.09505 23.1704 1.18 23.171L34.588 23.175H34.597C34.6913 23.1732 34.7826 23.1411 34.8573 23.0835C34.9321 23.0259 34.9863 22.9458 35.012 22.855Z" fill="#DC2626"/>
<path d="M41.0395 10.3472C40.8725 10.3472 40.7055 10.3512 40.5395 10.3602C40.5124 10.362 40.4858 10.3677 40.4605 10.3772C40.4169 10.3921 40.3775 10.4173 40.3458 10.4508C40.3141 10.4842 40.291 10.5248 40.2785 10.5692L39.5665 13.0252C39.2615 14.0802 39.3745 15.0552 39.8885 15.7712C40.3595 16.4322 41.1465 16.8212 42.1015 16.8652L45.9595 17.0972C46.0137 17.0991 46.0668 17.1135 46.1145 17.1393C46.1622 17.1652 46.2033 17.2018 46.2345 17.2462C46.2666 17.2938 46.2871 17.3483 46.2942 17.4053C46.3013 17.4623 46.2949 17.5201 46.2755 17.5742C46.244 17.6624 46.1875 17.7397 46.1129 17.7965C46.0384 17.8533 45.9489 17.8872 45.8555 17.8942L41.8475 18.1262C39.6715 18.2262 37.3265 19.9822 36.5055 22.1242L36.2155 22.8802C36.197 22.9279 36.1964 22.9808 36.2139 23.029C36.2313 23.0771 36.2656 23.1173 36.3105 23.1422C36.3405 23.1592 36.3725 23.1692 36.4065 23.1702H50.2085C50.2886 23.1711 50.3669 23.1457 50.4312 23.0978C50.4955 23.0499 50.5423 22.9822 50.5645 22.9052C50.8092 22.0339 50.9327 21.1331 50.9315 20.2282C50.9305 14.7712 46.5025 10.3482 41.0405 10.3482L41.0395 10.3472Z" fill="#DC2626" fill-opacity="0.8"/>
</g>
<defs>
<clipPath id="clip0_276_115">
<rect width="51" height="24" fill="white"/>
</clipPath>
</defs>
</svg>
